<?xml version="1.0" encoding="utf-8"?>
<!-- Generator: Adobe Illustrator 25.3.1, SVG Export Plug-In . SVG Version: 6.00 Build 0)  -->
<svg version="1.1" xmlns="http://www.w3.org/2000/svg" xmlns:xlink="http://www.w3.org/1999/xlink" x="0px" y="0px"
	 viewBox="0 0 365.2 24.9" style="enable-background:new 0 0 365.2 24.9;" xml:space="preserve">
<style type="text/css">
	.st0{display:none;}
	.st1{fill:#E73137;}
</style>
<g id="Layer_1" class="st0">
</g>
<g id="Layer_4">
	<g>
		<path id="XMLID_8_" d="M215.2,0.2h4.7c0.8,0,1.4,0.1,1.9,0.3c1,0.4,1.4,1.3,1.4,2.4c0,0.6-0.1,1.1-0.4,1.5
			c-0.3,0.4-0.6,0.7-1.1,0.9c0.4,0.2,0.7,0.4,0.9,0.6c0.2,0.3,0.3,0.7,0.3,1.3v1.4c0,0.4,0,0.7,0.1,0.9c0.1,0.3,0.2,0.5,0.4,0.6v0.2
			h-1.7c0-0.1-0.1-0.2-0.1-0.3s-0.1-0.4-0.1-0.8l-0.1-1.7c0-0.7-0.3-1.1-0.7-1.4c-0.3-0.1-0.7-0.2-1.2-0.2h-2.9v4.4h-1.4V0.2z
			 M219.8,5c0.6,0,1.1-0.1,1.5-0.4c0.4-0.3,0.6-0.7,0.6-1.4s-0.3-1.2-0.8-1.5c-0.3-0.1-0.6-0.2-1.1-0.2h-3.4V5L219.8,5L219.8,5z"/>
		<path id="XMLID_11_" d="M230.3,3.3c0.5,0.3,0.9,0.6,1.1,1c0.3,0.4,0.4,0.8,0.5,1.3c0.1,0.3,0.1,0.9,0.1,1.7h-5.4
			c0,0.8,0.2,1.4,0.5,1.8c0.3,0.5,0.9,0.7,1.6,0.7c0.7,0,1.2-0.2,1.6-0.7c0.2-0.3,0.4-0.5,0.5-0.9h1.2c0,0.3-0.1,0.6-0.3,0.9
			c-0.2,0.3-0.4,0.6-0.6,0.8c-0.4,0.4-0.9,0.6-1.4,0.8c-0.3,0.1-0.6,0.1-1,0.1c-0.9,0-1.7-0.3-2.4-1c-0.6-0.7-1-1.6-1-2.9
			c0-1.2,0.3-2.2,1-2.9c0.7-0.8,1.5-1.1,2.6-1.1C229.3,2.9,229.8,3,230.3,3.3z M230.7,6.2c-0.1-0.5-0.2-1-0.4-1.3
			C230,4.3,229.4,4,228.6,4c-0.6,0-1.1,0.2-1.4,0.6c-0.4,0.4-0.6,1-0.6,1.6L230.7,6.2L230.7,6.2z"/>
		<path id="XMLID_12_" d="M234.8,8.2c0,0.4,0.1,0.7,0.3,1c0.3,0.4,0.9,0.6,1.7,0.6c0.5,0,0.9-0.1,1.3-0.3c0.4-0.2,0.5-0.5,0.5-0.9
			c0-0.3-0.1-0.6-0.4-0.7c-0.2-0.1-0.6-0.2-1.1-0.4l-1-0.3c-0.7-0.2-1.1-0.3-1.4-0.5c-0.6-0.3-0.8-0.8-0.8-1.4
			c0-0.7,0.3-1.3,0.8-1.7s1.2-0.7,2.1-0.7c1.1,0,2,0.3,2.5,1c0.3,0.4,0.5,0.9,0.5,1.4h-1.2c0-0.3-0.1-0.5-0.3-0.8
			C238,4.2,237.5,4,236.8,4c-0.5,0-0.9,0.1-1.1,0.3c-0.3,0.2-0.4,0.4-0.4,0.7s0.2,0.6,0.5,0.8c0.2,0.1,0.5,0.2,0.8,0.3l0.9,0.2
			c0.9,0.2,1.5,0.4,1.9,0.6c0.5,0.3,0.7,0.8,0.7,1.5s-0.3,1.2-0.8,1.7s-1.3,0.7-2.3,0.7c-1.1,0-1.9-0.3-2.4-0.8s-0.7-1.1-0.8-1.9
			L234.8,8.2L234.8,8.2z"/>
		<path id="XMLID_13_" d="M242.3,8.2c0,0.4,0.1,0.7,0.3,1c0.3,0.4,0.9,0.6,1.7,0.6c0.5,0,0.9-0.1,1.3-0.3c0.4-0.2,0.5-0.5,0.5-0.9
			c0-0.3-0.1-0.6-0.4-0.7c-0.2-0.1-0.6-0.2-1.1-0.4l-1-0.3c-0.7-0.2-1.1-0.3-1.4-0.5c-0.6-0.3-0.8-0.8-0.8-1.4
			c0-0.7,0.3-1.3,0.8-1.7s1.2-0.7,2.1-0.7c1.1,0,2,0.3,2.5,1c0.3,0.4,0.5,0.9,0.5,1.4h-1.2c0-0.3-0.1-0.5-0.3-0.8
			C245.5,4.2,245,4,244.3,4c-0.5,0-0.9,0.1-1.1,0.3c-0.3,0.2-0.4,0.4-0.4,0.7s0.2,0.6,0.5,0.8c0.2,0.1,0.5,0.2,0.8,0.3l0.9,0.2
			c0.9,0.2,1.5,0.4,1.9,0.6c0.5,0.3,0.7,0.8,0.7,1.5s-0.3,1.2-0.8,1.7s-1.3,0.7-2.3,0.7c-1.1,0-1.9-0.3-2.4-0.8s-0.7-1.1-0.8-1.9
			L242.3,8.2L242.3,8.2z"/>
		<path id="XMLID_16_" d="M254.6,3.8c0.7,0.6,1,1.6,1,2.8s-0.3,2.2-0.9,3c-0.6,0.8-1.5,1.2-2.7,1.2c-1,0-1.8-0.3-2.4-1
			s-0.9-1.6-0.9-2.8c0-1.3,0.3-2.3,1-3c0.6-0.7,1.5-1.1,2.6-1.1C253.1,2.8,253.9,3.1,254.6,3.8z M253.8,8.8c0.3-0.6,0.5-1.3,0.5-2.1
			c0-0.7-0.1-1.3-0.3-1.7c-0.4-0.7-1-1-1.8-1s-1.3,0.3-1.7,0.9C250.2,5.5,250,6.2,250,7s0.2,1.5,0.5,2s0.9,0.8,1.7,0.8
			C252.9,9.7,253.5,9.4,253.8,8.8z"/>
		<path id="XMLID_17_" d="M258.8,3v5c0,0.4,0.1,0.7,0.2,0.9c0.2,0.4,0.6,0.7,1.2,0.7c0.9,0,1.4-0.4,1.8-1.2c0.2-0.4,0.3-1,0.3-1.7V3
			h1.3v7.5h-1.2V9.4c-0.2,0.3-0.4,0.5-0.6,0.7c-0.5,0.4-1,0.6-1.7,0.6c-1.1,0-1.8-0.4-2.1-1.1c-0.2-0.4-0.3-0.9-0.3-1.5V3L258.8,3
			L258.8,3z"/>
		<path id="XMLID_18_" d="M265.9,3h1.2v1.3c0.1-0.3,0.3-0.6,0.7-0.9c0.4-0.4,0.8-0.5,1.3-0.5h0.1c0.1,0,0.2,0,0.3,0v1.3h-0.2h-0.2
			c-0.6,0-1.1,0.2-1.5,0.6s-0.5,0.9-0.5,1.4v4.3h-1.3L265.9,3L265.9,3z"/>
		<path id="XMLID_19_" d="M276,3.4c0.5,0.4,0.9,1.1,1,2.1h-1.2c-0.1-0.5-0.2-0.8-0.5-1.2C275,4,274.6,3.8,274,3.8
			c-0.8,0-1.4,0.4-1.7,1.2c-0.2,0.5-0.3,1.1-0.3,1.9c0,0.8,0.2,1.4,0.5,1.9c0.3,0.5,0.8,0.8,1.5,0.8c0.5,0,0.9-0.2,1.2-0.5
			c0.3-0.3,0.5-0.8,0.6-1.3h1.2c-0.1,1-0.5,1.7-1.1,2.2s-1.3,0.7-2.2,0.7c-1,0-1.8-0.4-2.4-1.1c-0.6-0.7-0.9-1.6-0.9-2.7
			c0-1.3,0.3-2.3,1-3.1c0.6-0.7,1.5-1.1,2.5-1.1C274.8,2.8,275.5,3,276,3.4z"/>
		<path id="XMLID_22_" d="M283.3,3.3c0.5,0.3,0.9,0.6,1.1,1c0.3,0.4,0.4,0.8,0.5,1.3c0.1,0.3,0.1,0.9,0.1,1.7h-5.5
			c0,0.8,0.2,1.4,0.5,1.8c0.3,0.5,0.9,0.7,1.6,0.7s1.2-0.2,1.6-0.7c0.2-0.3,0.4-0.5,0.5-0.9h1.2c0,0.3-0.1,0.6-0.3,0.9
			c-0.2,0.3-0.4,0.6-0.6,0.8c-0.4,0.4-0.9,0.6-1.4,0.8c-0.3,0.1-0.6,0.1-1,0.1c-0.9,0-1.7-0.3-2.4-1c-0.6-0.7-1-1.6-1-2.9
			c0-1.2,0.3-2.2,1-2.9c0.7-0.8,1.5-1.1,2.6-1.1C282.2,2.9,282.8,3,283.3,3.3z M283.7,6.2c-0.1-0.5-0.2-1-0.4-1.3
			C283,4.3,282.4,4,281.6,4c-0.6,0-1.1,0.2-1.4,0.6c-0.4,0.4-0.6,1-0.6,1.6L283.7,6.2L283.7,6.2z"/>
		<path id="XMLID_23_" d="M287.7,8.2c0,0.4,0.1,0.7,0.3,1c0.3,0.4,0.9,0.6,1.7,0.6c0.5,0,0.9-0.1,1.3-0.3s0.5-0.5,0.5-0.9
			c0-0.3-0.1-0.6-0.4-0.7c-0.2-0.1-0.6-0.2-1.1-0.4l-1-0.3c-0.7-0.2-1.1-0.3-1.4-0.5c-0.6-0.3-0.8-0.8-0.8-1.4
			c0-0.7,0.3-1.3,0.8-1.7s1.2-0.7,2.1-0.7c1.1,0,2,0.3,2.5,1c0.3,0.4,0.5,0.9,0.5,1.4h-1.2c0-0.3-0.1-0.5-0.3-0.8
			c-0.3-0.3-0.8-0.5-1.5-0.5c-0.5,0-0.9,0.1-1.1,0.3c-0.3,0.2-0.4,0.4-0.4,0.7s0.2,0.6,0.5,0.8c0.2,0.1,0.5,0.2,0.8,0.3l0.9,0.2
			c0.9,0.2,1.5,0.4,1.9,0.6c0.5,0.3,0.7,0.8,0.7,1.5s-0.3,1.2-0.8,1.7s-1.3,0.7-2.3,0.7c-1.1,0-1.9-0.3-2.4-0.8s-0.7-1.1-0.8-1.9
			L287.7,8.2L287.7,8.2z"/>
		<path id="XMLID_24_" d="M298.9,3h1.2v1.1c0.4-0.4,0.7-0.8,1.1-0.9c0.4-0.2,0.8-0.3,1.3-0.3c1.1,0,1.8,0.4,2.2,1.1
			c0.2,0.4,0.3,1,0.3,1.7v4.8h-1.3V5.8c0-0.5-0.1-0.8-0.2-1.1c-0.2-0.5-0.6-0.7-1.2-0.7c-0.3,0-0.5,0-0.7,0.1
			c-0.3,0.1-0.7,0.3-0.9,0.6c-0.2,0.2-0.3,0.5-0.4,0.8s-0.1,0.6-0.1,1.1v3.9h-1.3L298.9,3L298.9,3z"/>
		<path id="XMLID_27_" d="M311.3,6c0.3,0,0.5-0.2,0.6-0.4c0.1-0.1,0.1-0.3,0.1-0.5c0-0.4-0.2-0.7-0.5-0.9c-0.3-0.2-0.7-0.3-1.3-0.3
			c-0.7,0-1.1,0.2-1.4,0.5c-0.2,0.2-0.3,0.5-0.3,0.9h-1.2c0-0.9,0.3-1.6,0.9-1.9c0.6-0.4,1.2-0.5,2-0.5c0.9,0,1.6,0.2,2.2,0.5
			c0.5,0.3,0.8,0.9,0.8,1.6v4.3c0,0.1,0,0.2,0.1,0.3s0.2,0.1,0.3,0.1h0.2h0.2v0.9c-0.2,0.1-0.3,0.1-0.4,0.1s-0.2,0-0.4,0
			c-0.4,0-0.8-0.2-0.9-0.5c-0.1-0.2-0.2-0.4-0.2-0.7c-0.3,0.3-0.6,0.6-1.1,0.9c-0.5,0.2-1,0.4-1.6,0.4c-0.7,0-1.3-0.2-1.7-0.6
			c-0.4-0.4-0.7-1-0.7-1.6c0-0.7,0.2-1.2,0.7-1.6c0.4-0.4,1-0.6,1.7-0.7L311.3,6z M308.7,9.4c0.3,0.2,0.6,0.3,0.9,0.3
			c0.4,0,0.9-0.1,1.3-0.3c0.7-0.3,1.1-0.9,1.1-1.7v-1c-0.2,0.1-0.4,0.2-0.6,0.2C311.2,7,310.9,7,310.7,7l-0.8,0.1
			c-0.5,0.1-0.8,0.2-1,0.3c-0.4,0.2-0.6,0.6-0.6,1.1C308.3,8.9,308.4,9.2,308.7,9.4z"/>
		<path id="XMLID_28_" d="M315.9,0.9h1.3V3h1.2v1h-1.2v4.9c0,0.3,0.1,0.4,0.3,0.5c0.1,0.1,0.3,0.1,0.5,0.1h0.2h0.2v1
			c-0.1,0-0.3,0.1-0.5,0.1c-0.2,0-0.3,0-0.5,0c-0.6,0-1-0.2-1.2-0.5c-0.2-0.3-0.3-0.7-0.3-1.2v-5h-1v-1h1V0.9L315.9,0.9z"/>
		<path id="XMLID_29_" d="M321.3,3v5c0,0.4,0.1,0.7,0.2,0.9c0.2,0.4,0.6,0.7,1.2,0.7c0.9,0,1.4-0.4,1.8-1.2c0.2-0.4,0.3-1,0.3-1.7V3
			h1.3v7.5h-1.2V9.4c-0.2,0.3-0.4,0.5-0.6,0.7c-0.5,0.4-1,0.6-1.7,0.6c-1.1,0-1.8-0.4-2.1-1.1c-0.2-0.4-0.3-0.9-0.3-1.5V3L321.3,3
			L321.3,3z"/>
		<path id="XMLID_30_" d="M328.4,3h1.2v1.3c0.1-0.3,0.3-0.6,0.7-0.9c0.4-0.4,0.8-0.5,1.3-0.5h0.1c0.1,0,0.2,0,0.3,0v1.3h-0.2h-0.2
			c-0.6,0-1.1,0.2-1.5,0.6c-0.3,0.4-0.5,0.9-0.5,1.4v4.3h-1.3L328.4,3L328.4,3z"/>
		<path id="XMLID_33_" d="M338.2,3.3c0.5,0.3,0.9,0.6,1.1,1c0.3,0.4,0.4,0.8,0.5,1.3c0.1,0.3,0.1,0.9,0.1,1.7h-5.5
			c0,0.8,0.2,1.4,0.5,1.8c0.3,0.5,0.9,0.7,1.6,0.7s1.2-0.2,1.6-0.7c0.2-0.3,0.4-0.5,0.5-0.9h1.2c0,0.3-0.1,0.6-0.3,0.9
			c-0.2,0.3-0.4,0.6-0.6,0.8c-0.4,0.4-0.9,0.6-1.4,0.8c-0.3,0.1-0.6,0.1-1,0.1c-0.9,0-1.7-0.3-2.4-1c-0.6-0.7-1-1.6-1-2.9
			c0-1.2,0.3-2.2,1-2.9c0.7-0.8,1.5-1.1,2.6-1.1C337.2,2.9,337.7,3,338.2,3.3z M338.7,6.2c-0.1-0.5-0.2-1-0.4-1.3
			C338,4.3,337.4,4,336.6,4c-0.6,0-1.1,0.2-1.4,0.6c-0.4,0.4-0.6,1-0.6,1.6L338.7,6.2L338.7,6.2z"/>
		<rect id="XMLID_34_" x="342" y="0.2" width="1.3" height="10.3"/>
		<rect id="XMLID_35_" x="345.5" y="0.2" width="1.3" height="10.3"/>
		<path id="XMLID_38_" d="M353.7,3.3c0.5,0.3,0.9,0.6,1.1,1c0.3,0.4,0.4,0.8,0.5,1.3c0.1,0.3,0.1,0.9,0.1,1.7h-5.5
			c0,0.8,0.2,1.4,0.5,1.8c0.3,0.5,0.9,0.7,1.6,0.7s1.2-0.2,1.6-0.7c0.2-0.3,0.4-0.5,0.5-0.9h1.2c0,0.3-0.1,0.6-0.3,0.9
			c-0.2,0.3-0.4,0.6-0.6,0.8c-0.4,0.4-0.9,0.6-1.4,0.8c-0.3,0.1-0.6,0.1-1,0.1c-0.9,0-1.7-0.3-2.4-1c-0.6-0.7-1-1.6-1-2.9
			c0-1.2,0.3-2.2,1-2.9c0.7-0.8,1.5-1.1,2.6-1.1C352.7,2.9,353.2,3,353.7,3.3z M354.2,6.2c-0.1-0.5-0.2-1-0.4-1.3
			c-0.3-0.6-0.9-0.9-1.7-0.9c-0.6,0-1.1,0.2-1.4,0.6c-0.4,0.4-0.6,1-0.6,1.6L354.2,6.2L354.2,6.2z"/>
		<path id="XMLID_39_" d="M358.2,8.2c0,0.4,0.1,0.7,0.3,1c0.3,0.4,0.9,0.6,1.7,0.6c0.5,0,0.9-0.1,1.3-0.3S362,9,362,8.6
			c0-0.3-0.1-0.6-0.4-0.7c-0.2-0.1-0.6-0.2-1.1-0.4l-1-0.3c-0.7-0.2-1.1-0.3-1.4-0.5c-0.6-0.3-0.8-0.8-0.8-1.4
			c0-0.7,0.3-1.3,0.8-1.7s1.2-0.7,2.1-0.7c1.1,0,2,0.3,2.5,1c0.3,0.4,0.5,0.9,0.5,1.4H362c0-0.3-0.1-0.5-0.3-0.8
			c-0.3-0.3-0.8-0.5-1.5-0.5c-0.5,0-0.9,0.1-1.1,0.3c-0.3,0.2-0.4,0.4-0.4,0.7s0.2,0.6,0.5,0.8c0.2,0.1,0.5,0.2,0.8,0.3l0.9,0.2
			c0.9,0.2,1.5,0.4,1.9,0.6c0.5,0.3,0.7,0.8,0.7,1.5s-0.3,1.2-0.8,1.7s-1.3,0.7-2.3,0.7c-1.1,0-1.9-0.3-2.4-0.8s-0.7-1.1-0.8-1.9
			L358.2,8.2L358.2,8.2z"/>
		<path id="XMLID_40_" d="M222.4,14.2c0.7,0.7,1.1,1.5,1.2,2.3h-1.4c-0.2-0.7-0.5-1.2-0.9-1.6c-0.5-0.4-1.1-0.6-1.9-0.6
			c-1,0-1.8,0.4-2.4,1.1c-0.6,0.7-0.9,1.8-0.9,3.3c0,1.2,0.3,2.2,0.8,2.9c0.6,0.8,1.4,1.1,2.5,1.1c1,0,1.8-0.4,2.3-1.2
			c0.3-0.4,0.5-1,0.6-1.6h1.4c-0.1,1.1-0.5,2-1.2,2.7c-0.8,0.9-1.9,1.3-3.3,1.3c-1.2,0-2.2-0.4-3-1.1c-1.1-1-1.6-2.4-1.6-4.4
			c0-1.5,0.4-2.8,1.2-3.7c0.9-1.1,2-1.6,3.6-1.6C220.6,13.1,221.6,13.5,222.4,14.2z"/>
		<path id="XMLID_43_" d="M229.7,19.2c0.3,0,0.5-0.2,0.6-0.4c0.1-0.1,0.1-0.3,0.1-0.5c0-0.4-0.2-0.7-0.5-0.9
			c-0.3-0.2-0.7-0.3-1.3-0.3c-0.7,0-1.1,0.2-1.4,0.5c-0.2,0.2-0.3,0.5-0.3,0.9h-1.2c0-0.9,0.3-1.6,0.9-1.9s1.2-0.5,2-0.5
			c0.9,0,1.6,0.2,2.2,0.5c0.5,0.3,0.8,0.9,0.8,1.6v4.3c0,0.1,0,0.2,0.1,0.3c0.1,0.1,0.2,0.1,0.3,0.1h0.2h0.2v0.9
			c-0.2,0.1-0.3,0.1-0.4,0.1c-0.1,0-0.2,0-0.4,0c-0.4,0-0.8-0.2-0.9-0.5c-0.1-0.2-0.2-0.4-0.2-0.7c-0.3,0.3-0.6,0.6-1.1,0.9
			c-0.5,0.2-1,0.4-1.6,0.4c-0.7,0-1.3-0.2-1.7-0.6s-0.7-1-0.7-1.6c0-0.7,0.2-1.2,0.7-1.6c0.4-0.4,1-0.6,1.7-0.7L229.7,19.2z
			 M227,22.6c0.3,0.2,0.6,0.3,0.9,0.3c0.4,0,0.9-0.1,1.3-0.3c0.7-0.3,1.1-0.9,1.1-1.7v-1c-0.2,0.1-0.4,0.2-0.6,0.2
			c-0.2,0.1-0.5,0.1-0.7,0.1l-0.8,0.1c-0.5,0.1-0.8,0.2-1,0.3c-0.4,0.2-0.6,0.6-0.6,1.1C226.6,22.1,226.7,22.4,227,22.6z"/>
		<path id="XMLID_44_" d="M234,16.2h1.2v1.1c0.4-0.4,0.7-0.8,1.1-0.9c0.4-0.2,0.8-0.3,1.3-0.3c1.1,0,1.8,0.4,2.2,1.1
			c0.2,0.4,0.3,1,0.3,1.7v4.8h-1.3V19c0-0.5-0.1-0.8-0.2-1.1c-0.2-0.5-0.6-0.7-1.2-0.7c-0.3,0-0.5,0-0.7,0.1
			c-0.3,0.1-0.7,0.3-0.9,0.6c-0.2,0.2-0.3,0.5-0.4,0.8c-0.1,0.3-0.1,0.6-0.1,1.1v3.9H234L234,16.2L234,16.2z"/>
		<path id="XMLID_47_" d="M246.4,19.2c0.3,0,0.5-0.2,0.6-0.4c0.1-0.1,0.1-0.3,0.1-0.5c0-0.4-0.2-0.7-0.5-0.9
			c-0.3-0.2-0.7-0.3-1.3-0.3c-0.7,0-1.1,0.2-1.4,0.5c-0.2,0.2-0.3,0.5-0.3,0.9h-1.2c0-0.9,0.3-1.6,0.9-1.9c0.6-0.4,1.2-0.5,2-0.5
			c0.9,0,1.6,0.2,2.2,0.5c0.5,0.3,0.8,0.9,0.8,1.6v4.3c0,0.1,0,0.2,0.1,0.3c0.1,0.1,0.2,0.1,0.3,0.1h0.2h0.2v0.9
			c-0.2,0.1-0.3,0.1-0.4,0.1c-0.1,0-0.2,0-0.4,0c-0.4,0-0.8-0.2-0.9-0.5c-0.1-0.2-0.2-0.4-0.2-0.7c-0.3,0.3-0.6,0.6-1.1,0.9
			c-0.5,0.2-1,0.4-1.6,0.4c-0.7,0-1.3-0.2-1.7-0.6s-0.7-1-0.7-1.6c0-0.7,0.2-1.2,0.7-1.6c0.4-0.4,1-0.6,1.7-0.7L246.4,19.2z
			 M243.8,22.6c0.3,0.2,0.6,0.3,0.9,0.3c0.4,0,0.9-0.1,1.3-0.3c0.7-0.3,1.1-0.9,1.1-1.7v-1c-0.2,0.1-0.4,0.2-0.6,0.2
			c-0.2,0.1-0.5,0.1-0.7,0.1l-0.8,0.1c-0.5,0.1-0.8,0.2-1,0.3c-0.4,0.2-0.6,0.6-0.6,1.1C243.4,22.1,243.5,22.4,243.8,22.6z"/>
		<path id="XMLID_50_" d="M254.9,16.5c0.2,0.1,0.5,0.4,0.8,0.7v-3.8h1.2v10.3h-1.1v-1c-0.3,0.5-0.6,0.8-1,1s-0.9,0.3-1.4,0.3
			c-0.8,0-1.6-0.4-2.2-1.1c-0.6-0.7-0.9-1.6-0.9-2.8c0-1.1,0.3-2,0.8-2.8c0.6-0.8,1.4-1.2,2.4-1.2C254,16.1,254.5,16.2,254.9,16.5z
			 M252.1,22.1c0.3,0.5,0.9,0.8,1.6,0.8c0.6,0,1.1-0.3,1.4-0.8c0.4-0.5,0.6-1.2,0.6-2.2s-0.2-1.7-0.6-2.1c-0.4-0.5-0.9-0.7-1.4-0.7
			c-0.6,0-1.1,0.2-1.5,0.7s-0.6,1.2-0.6,2.1C251.6,20.9,251.7,21.6,252.1,22.1z"/>
		<path id="XMLID_53_" d="M263.2,19.2c0.3,0,0.5-0.2,0.6-0.4c0.1-0.1,0.1-0.3,0.1-0.5c0-0.4-0.2-0.7-0.5-0.9
			c-0.3-0.2-0.7-0.3-1.3-0.3c-0.7,0-1.1,0.2-1.4,0.5c-0.2,0.2-0.3,0.5-0.3,0.9h-1.2c0-0.9,0.3-1.6,0.9-1.9c0.6-0.4,1.2-0.5,2-0.5
			c0.9,0,1.6,0.2,2.2,0.5c0.5,0.3,0.8,0.9,0.8,1.6v4.3c0,0.1,0,0.2,0.1,0.3c0.1,0.1,0.2,0.1,0.3,0.1h0.2h0.2v0.9
			c-0.2,0.1-0.3,0.1-0.4,0.1c-0.1,0-0.2,0-0.4,0c-0.4,0-0.8-0.2-0.9-0.5c-0.1-0.2-0.2-0.4-0.2-0.7c-0.3,0.3-0.6,0.6-1.1,0.9
			c-0.5,0.2-1,0.4-1.6,0.4c-0.7,0-1.3-0.2-1.7-0.6s-0.7-1-0.7-1.6c0-0.7,0.2-1.2,0.7-1.6c0.4-0.4,1-0.6,1.7-0.7L263.2,19.2z
			 M260.5,22.6c0.3,0.2,0.6,0.3,0.9,0.3c0.4,0,0.9-0.1,1.3-0.3c0.7-0.3,1.1-0.9,1.1-1.7v-1c-0.2,0.1-0.4,0.2-0.6,0.2
			c-0.2,0.1-0.5,0.1-0.7,0.1l-0.8,0.1c-0.5,0.1-0.8,0.2-1,0.3c-0.4,0.2-0.6,0.6-0.6,1.1C260.1,22.1,260.2,22.4,260.5,22.6z"/>
	</g>
</g>
<g id="Layer_3">
	<g>
		<polygon id="XMLID_49_" points="73.5,0.3 75.1,0.3 80.3,8.6 80.3,0.3 81.6,0.3 81.6,10.6 80,10.6 74.8,2.3 74.8,10.6 73.5,10.6 		
			"/>
		<path id="XMLID_48_" d="M88.1,6.1c0.3,0,0.5-0.2,0.6-0.4c0.1-0.1,0.1-0.3,0.1-0.5c0-0.4-0.2-0.7-0.5-0.9S87.6,4,87,4
			c-0.7,0-1.1,0.2-1.4,0.5c-0.2,0.2-0.3,0.5-0.3,0.9h-1.2c0-0.9,0.3-1.6,0.9-1.9C85.6,3.1,86.2,3,87,3c0.9,0,1.6,0.2,2.2,0.5
			C89.7,3.8,90,4.4,90,5.1v4.3c0,0.1,0,0.2,0.1,0.3s0.2,0.1,0.3,0.1h0.2h0.2v0.9c-0.2,0.1-0.3,0.1-0.4,0.1s-0.2,0-0.4,0
			c-0.4,0-0.8-0.2-0.9-0.5c-0.1-0.2-0.2-0.4-0.2-0.7c-0.3,0.3-0.6,0.6-1.1,0.9c-0.5,0.2-1,0.4-1.6,0.4c-0.7,0-1.3-0.2-1.7-0.6
			c-0.4-0.4-0.7-1-0.7-1.6c0-0.7,0.2-1.2,0.7-1.6c0.4-0.4,1-0.6,1.7-0.7L88.1,6.1z M85.4,9.5c0.3,0.2,0.6,0.3,0.9,0.3
			c0.4,0,0.9-0.1,1.3-0.3c0.7-0.3,1.1-0.9,1.1-1.7v-1C88.5,6.9,88.3,7,88.1,7c-0.2,0.1-0.5,0.1-0.7,0.1l-0.8,0.1
			c-0.5,0.1-0.8,0.2-1,0.3C85.2,7.7,85,8.1,85,8.6C85,9,85.2,9.3,85.4,9.5z"/>
		<path id="XMLID_46_" d="M92.7,1H94v2.1h1.2v1H94V9c0,0.3,0.1,0.4,0.3,0.5c0.1,0.1,0.3,0.1,0.5,0.1H95h0.2v1
			c-0.1,0-0.3,0.1-0.5,0.1s-0.3,0-0.5,0c-0.6,0-1-0.2-1.2-0.5S92.7,9.5,92.7,9V4h-1V3h1V1L92.7,1z"/>
		<path id="XMLID_45_" d="M98.1,3.1v5c0,0.4,0.1,0.7,0.2,0.9c0.2,0.4,0.6,0.7,1.2,0.7c0.9,0,1.4-0.4,1.8-1.2c0.2-0.4,0.3-1,0.3-1.7
			V3.1h1.3v7.5h-1.4V9.5c-0.2,0.3-0.4,0.5-0.6,0.7c-0.5,0.4-1,0.6-1.7,0.6c-1.1,0-1.8-0.4-2.1-1.1c-0.2-0.4-0.3-0.9-0.3-1.5V3.1
			H98.1z"/>
		<path id="XMLID_42_" d="M105.2,3.1h1.2v1.3c0.1-0.3,0.3-0.6,0.7-0.9c0.4-0.4,0.8-0.5,1.3-0.5h0.1c0.1,0,0.2,0,0.3,0v1.3h-0.2h-0.2
			c-0.6,0-1.1,0.2-1.5,0.6c-0.3,0.4-0.5,0.9-0.5,1.4v4.3h-1.3L105.2,3.1L105.2,3.1z"/>
		<path id="XMLID_41_" d="M114.4,6.1c0.3,0,0.5-0.2,0.6-0.4c0.1-0.1,0.1-0.3,0.1-0.5c0-0.4-0.2-0.7-0.5-0.9S113.9,4,113.3,4
			c-0.7,0-1.1,0.2-1.4,0.5c-0.2,0.2-0.3,0.5-0.3,0.9h-1.2c0-0.9,0.3-1.6,0.9-1.9c0.6-0.4,1.2-0.5,2-0.5c0.9,0,1.6,0.2,2.2,0.5
			c0.5,0.3,0.8,0.9,0.8,1.6v4.3c0,0.1,0,0.2,0.1,0.3s0.2,0.1,0.3,0.1h0.2h0.2v0.9c-0.2,0.1-0.3,0.1-0.4,0.1s-0.2,0-0.4,0
			c-0.4,0-0.8-0.2-0.9-0.5c-0.1-0.2-0.2-0.4-0.2-0.7c-0.3,0.3-0.6,0.6-1.1,0.9c-0.5,0.2-1,0.4-1.6,0.4c-0.7,0-1.3-0.2-1.7-0.6
			c-0.4-0.4-0.7-1-0.7-1.6c0-0.7,0.2-1.2,0.7-1.6c0.4-0.4,1-0.6,1.7-0.7L114.4,6.1z M111.7,9.5c0.3,0.2,0.6,0.3,0.9,0.3
			c0.4,0,0.9-0.1,1.3-0.3c0.7-0.3,1.1-0.9,1.1-1.7v-1c-0.2,0.1-0.4,0.2-0.6,0.2c-0.2,0.1-0.5,0.1-0.7,0.1l-0.8,0.1
			c-0.5,0.1-0.8,0.2-1,0.3c-0.4,0.2-0.6,0.6-0.6,1.1C111.3,9,111.4,9.3,111.7,9.5z"/>
		<rect id="XMLID_37_" x="118.7" y="0.3" width="1.3" height="10.3"/>
		<path id="XMLID_36_" d="M127,0.3h4.7c0.8,0,1.4,0.1,1.9,0.3c1,0.4,1.4,1.3,1.4,2.4c0,0.6-0.1,1.1-0.4,1.5s-0.6,0.7-1.1,0.9
			c0.4,0.2,0.7,0.4,0.9,0.6c0.2,0.3,0.3,0.7,0.3,1.3v1.4c0,0.4,0,0.7,0.1,0.9c0.1,0.3,0.2,0.5,0.4,0.6v0.2h-1.7
			c0-0.1-0.1-0.2-0.1-0.3s-0.1-0.4-0.1-0.8l-0.1-1.7c0-0.7-0.3-1.1-0.7-1.4c-0.3-0.1-0.7-0.2-1.2-0.2h-3.1v4.4h-1.4V0.3H127z
			 M131.5,5c0.6,0,1.1-0.1,1.5-0.4c0.4-0.3,0.6-0.7,0.6-1.4s-0.3-1.2-0.8-1.5c-0.3-0.1-0.6-0.2-1.1-0.2h-3.3V5L131.5,5L131.5,5z"/>
		<path id="XMLID_32_" d="M142.1,3.3c0.5,0.3,0.9,0.6,1.1,1c0.3,0.4,0.4,0.8,0.5,1.3c0.1,0.3,0.1,0.9,0.1,1.7h-5.5
			c0,0.8,0.2,1.4,0.5,1.8c0.3,0.5,0.9,0.7,1.6,0.7s1.2-0.2,1.6-0.7c0.2-0.3,0.4-0.5,0.5-0.9h1.2c0,0.3-0.1,0.6-0.3,0.9
			c-0.2,0.3-0.4,0.6-0.6,0.8c-0.4,0.4-0.9,0.6-1.4,0.8c-0.3,0.1-0.6,0.1-1,0.1c-0.9,0-1.7-0.3-2.4-1c-0.6-0.7-1-1.6-1-2.9
			c0-1.2,0.3-2.2,1-2.9c0.7-0.8,1.5-1.1,2.6-1.1C141,2.9,141.6,3,142.1,3.3z M142.5,6.2c-0.1-0.5-0.2-1-0.4-1.3
			c-0.3-0.6-0.9-0.9-1.7-0.9c-0.6,0-1.1,0.2-1.4,0.6c-0.4,0.4-0.6,1-0.6,1.6L142.5,6.2L142.5,6.2z"/>
		<path id="XMLID_31_" d="M146.5,8.2c0,0.4,0.1,0.7,0.3,1c0.3,0.4,0.9,0.6,1.7,0.6c0.5,0,0.9-0.1,1.3-0.3s0.5-0.5,0.5-0.9
			c0-0.3-0.1-0.6-0.4-0.7c-0.2-0.1-0.6-0.2-1.1-0.4l-1-0.3c-0.7-0.2-1.1-0.3-1.4-0.5c-0.6-0.3-0.8-0.8-0.8-1.4
			c0-0.7,0.3-1.3,0.8-1.7s1.2-0.7,2.1-0.7c1.1,0,2,0.3,2.5,1c0.3,0.4,0.5,0.9,0.5,1.4h-1.2c0-0.3-0.1-0.5-0.3-0.8
			c-0.3-0.3-0.8-0.5-1.5-0.5c-0.5,0-0.9,0.1-1.1,0.3C147.1,4.5,147,4.7,147,5s0.2,0.6,0.5,0.8c0.2,0.1,0.5,0.2,0.8,0.3l0.9,0.2
			c0.9,0.2,1.5,0.4,1.9,0.6c0.5,0.3,0.7,0.8,0.7,1.5s-0.3,1.2-0.8,1.7s-1.3,0.7-2.3,0.7c-1.1,0-1.9-0.3-2.4-0.8s-0.7-1.1-0.8-1.9
			L146.5,8.2L146.5,8.2z"/>
		<path id="XMLID_26_" d="M158.8,3.8c0.7,0.6,1,1.6,1,2.8s-0.3,2.2-0.9,3s-1.5,1.2-2.7,1.2c-1,0-1.8-0.3-2.4-1s-0.9-1.6-0.9-2.8
			c0-1.3,0.3-2.3,1-3c0.6-0.7,1.5-1.1,2.6-1.1C157.3,2.9,158.1,3.2,158.8,3.8z M158,8.8c0.3-0.6,0.5-1.3,0.5-2.1
			c0-0.7-0.1-1.3-0.3-1.7c-0.4-0.7-1-1-1.8-1s-1.3,0.3-1.7,0.9c-0.3,0.6-0.5,1.3-0.5,2.1s0.2,1.5,0.5,2s0.9,0.8,1.7,0.8
			C157.1,9.8,157.7,9.5,158,8.8z"/>
		<path id="XMLID_25_" d="M163,3.1v5c0,0.4,0.1,0.7,0.2,0.9c0.2,0.4,0.6,0.7,1.2,0.7c0.9,0,1.4-0.4,1.8-1.2c0.2-0.4,0.3-1,0.3-1.7
			V3.1h1.3v7.5h-1.3V9.5c-0.2,0.3-0.4,0.5-0.6,0.7c-0.5,0.4-1,0.6-1.7,0.6c-1.1,0-1.8-0.4-2.1-1.1c-0.2-0.4-0.3-0.9-0.3-1.5V3.1H163
			z"/>
		<path id="XMLID_21_" d="M170.1,3.1h1.2v1.3c0.1-0.3,0.3-0.6,0.7-0.9c0.4-0.4,0.8-0.5,1.3-0.5h0.1c0.1,0,0.2,0,0.3,0v1.3h-0.2h-0.2
			c-0.6,0-1.1,0.2-1.5,0.6c-0.3,0.4-0.5,0.9-0.5,1.4v4.3H170L170.1,3.1L170.1,3.1z"/>
		<path id="XMLID_20_" d="M180.2,3.5c0.5,0.4,0.9,1.1,1,2.1H180c-0.1-0.5-0.2-0.8-0.5-1.2c-0.3-0.3-0.7-0.5-1.3-0.5
			c-0.8,0-1.4,0.4-1.7,1.2c-0.2,0.5-0.3,1.1-0.3,1.9c0,0.8,0.2,1.4,0.5,1.9s0.8,0.8,1.5,0.8c0.5,0,0.9-0.2,1.2-0.5
			c0.3-0.3,0.5-0.8,0.6-1.3h1.2c-0.1,1-0.5,1.7-1.1,2.2s-1.3,0.7-2.2,0.7c-1,0-1.8-0.4-2.4-1.1c-0.6-0.7-0.9-1.6-0.9-2.7
			c0-1.3,0.3-2.3,1-3.1c0.6-0.7,1.5-1.1,2.5-1.1C179,2.9,179.7,3.1,180.2,3.5z"/>
		<path id="XMLID_15_" d="M187.5,3.3c0.5,0.3,0.9,0.6,1.1,1c0.3,0.4,0.4,0.8,0.5,1.3c0.1,0.3,0.1,0.9,0.1,1.7h-5.5
			c0,0.8,0.2,1.4,0.5,1.8c0.3,0.5,0.9,0.7,1.6,0.7s1.2-0.2,1.6-0.7c0.2-0.3,0.4-0.5,0.5-0.9h1.2c0,0.3-0.1,0.6-0.3,0.9
			c-0.2,0.3-0.4,0.6-0.6,0.8c-0.4,0.4-0.9,0.6-1.4,0.8c-0.3,0.1-0.6,0.1-1,0.1c-0.9,0-1.7-0.3-2.4-1c-0.6-0.7-1-1.6-1-2.9
			c0-1.2,0.3-2.2,1-2.9c0.7-0.8,1.5-1.1,2.6-1.1C186.4,2.9,187,3,187.5,3.3z M187.9,6.2c-0.1-0.5-0.2-1-0.4-1.3
			c-0.3-0.6-0.9-0.9-1.7-0.9c-0.6,0-1.1,0.2-1.4,0.6c-0.4,0.4-0.6,1-0.6,1.6L187.9,6.2L187.9,6.2z"/>
		<path id="XMLID_14_" d="M191.9,8.2c0,0.4,0.1,0.7,0.3,1c0.3,0.4,0.9,0.6,1.7,0.6c0.5,0,0.9-0.1,1.3-0.3s0.5-0.5,0.5-0.9
			c0-0.3-0.1-0.6-0.4-0.7c-0.2-0.1-0.6-0.2-1.1-0.4l-1-0.3c-0.7-0.2-1.1-0.3-1.4-0.5c-0.6-0.3-0.8-0.8-0.8-1.4
			c0-0.7,0.3-1.3,0.8-1.7s1.2-0.7,2.1-0.7c1.1,0,2,0.3,2.5,1c0.3,0.4,0.5,0.9,0.5,1.4h-1.2c0-0.3-0.1-0.5-0.3-0.8
			c-0.3-0.3-0.8-0.5-1.5-0.5c-0.5,0-0.9,0.1-1.1,0.3c-0.3,0.2-0.4,0.4-0.4,0.7s0.2,0.6,0.5,0.8c0.2,0.1,0.5,0.2,0.8,0.3l0.9,0.2
			c0.9,0.2,1.5,0.4,1.9,0.6c0.5,0.3,0.7,0.8,0.7,1.5s-0.3,1.2-0.8,1.7s-1.3,0.7-2.3,0.7c-1.1,0-1.9-0.3-2.4-0.8s-0.7-1.1-0.8-1.9
			L191.9,8.2L191.9,8.2z"/>
		<path id="XMLID_10_" d="M80.8,14.2c0.7,0.7,1.1,1.5,1.2,2.3h-1.4c-0.2-0.7-0.5-1.2-0.9-1.6c-0.5-0.4-1.1-0.6-1.9-0.6
			c-1,0-1.8,0.4-2.4,1.1c-0.6,0.7-0.9,1.8-0.9,3.3c0,1.2,0.3,2.2,0.8,2.9c0.6,0.8,1.4,1.1,2.5,1.1c1,0,1.8-0.4,2.3-1.2
			c0.3-0.4,0.5-1,0.6-1.6h1.4c-0.1,1.1-0.5,2-1.2,2.7c-0.8,0.9-1.9,1.3-3.3,1.3c-1.2,0-2.2-0.4-3-1.1c-1.1-1-1.6-2.4-1.6-4.4
			c0-1.5,0.4-2.8,1.2-3.7c0.9-1.1,2-1.6,3.6-1.6C79.1,13.2,80.1,13.5,80.8,14.2z"/>
		<path id="XMLID_9_" d="M88.1,19.2c0.3,0,0.5-0.2,0.6-0.4c0.1-0.1,0.1-0.3,0.1-0.5c0-0.4-0.2-0.7-0.5-0.9c-0.3-0.2-0.7-0.3-1.3-0.3
			c-0.7,0-1.1,0.2-1.4,0.5c-0.2,0.2-0.3,0.5-0.3,0.9h-1.2c0-0.9,0.3-1.6,0.9-1.9c0.6-0.4,1.2-0.5,2-0.5c0.9,0,1.6,0.2,2.2,0.5
			c0.5,0.3,0.8,0.9,0.8,1.6v4.3c0,0.1,0,0.2,0.1,0.3c0.1,0.1,0.2,0.1,0.3,0.1h0.2h0.2v0.9c-0.2,0.1-0.3,0.1-0.4,0.1s-0.2,0-0.4,0
			c-0.4,0-0.8-0.2-0.9-0.5c-0.1-0.2-0.2-0.4-0.2-0.7c-0.3,0.3-0.6,0.6-1.1,0.9c-0.5,0.2-1,0.4-1.6,0.4c-0.7,0-1.3-0.2-1.7-0.6
			s-0.7-1-0.7-1.6c0-0.7,0.2-1.2,0.7-1.6c0.4-0.4,1-0.6,1.7-0.7L88.1,19.2z M85.4,22.7c0.3,0.2,0.6,0.3,0.9,0.3
			c0.4,0,0.9-0.1,1.3-0.3c0.7-0.3,1.1-0.9,1.1-1.7v-1c-0.2,0.1-0.4,0.2-0.6,0.2c-0.2,0.1-0.5,0.1-0.7,0.1l-0.8,0.1
			c-0.5,0.1-0.8,0.2-1,0.3c-0.4,0.2-0.6,0.6-0.6,1.1C85,22.2,85.2,22.4,85.4,22.7z"/>
		<path id="XMLID_7_" d="M92.4,16.3h1.2v1.1c0.4-0.4,0.7-0.8,1.1-0.9c0.4-0.2,0.8-0.3,1.3-0.3c1.1,0,1.8,0.4,2.2,1.1
			c0.2,0.4,0.3,1,0.3,1.7v4.8h-1.3v-4.7c0-0.5-0.1-0.8-0.2-1.1c-0.2-0.5-0.6-0.7-1.2-0.7c-0.3,0-0.5,0-0.7,0.1
			c-0.3,0.1-0.7,0.3-0.9,0.6c-0.2,0.2-0.3,0.5-0.4,0.8s-0.1,0.6-0.1,1.1v3.9h-1.3V16.3L92.4,16.3z"/>
		<path id="XMLID_6_" d="M104.8,19.2c0.3,0,0.5-0.2,0.6-0.4c0.1-0.1,0.1-0.3,0.1-0.5c0-0.4-0.2-0.7-0.5-0.9
			c-0.3-0.2-0.7-0.3-1.3-0.3c-0.7,0-1.1,0.2-1.4,0.5c-0.2,0.2-0.3,0.5-0.3,0.9h-1.2c0-0.9,0.3-1.6,0.9-1.9c0.6-0.4,1.2-0.5,2-0.5
			c0.9,0,1.6,0.2,2.2,0.5c0.5,0.3,0.8,0.9,0.8,1.6v4.3c0,0.1,0,0.2,0.1,0.3c0.1,0.1,0.2,0.1,0.3,0.1h0.2h0.2v0.9
			c-0.2,0.1-0.3,0.1-0.4,0.1s-0.2,0-0.4,0c-0.4,0-0.8-0.2-0.9-0.5c-0.1-0.2-0.2-0.4-0.2-0.7c-0.3,0.3-0.6,0.6-1.1,0.9
			c-0.5,0.2-1,0.4-1.6,0.4c-0.7,0-1.3-0.2-1.7-0.6c-0.4-0.4-0.7-1-0.7-1.6c0-0.7,0.2-1.2,0.7-1.6c0.4-0.4,1-0.6,1.7-0.7L104.8,19.2z
			 M102.2,22.7c0.3,0.2,0.6,0.3,0.9,0.3c0.4,0,0.9-0.1,1.3-0.3c0.7-0.3,1.1-0.9,1.1-1.7v-1c-0.2,0.1-0.4,0.2-0.6,0.2
			c-0.2,0.1-0.5,0.1-0.7,0.1l-0.8,0.1c-0.5,0.1-0.8,0.2-1,0.3c-0.4,0.2-0.6,0.6-0.6,1.1C101.8,22.2,101.9,22.4,102.2,22.7z"/>
		<path id="XMLID_2_" d="M113.3,16.5c0.2,0.1,0.5,0.4,0.8,0.7v-3.8h1.2v10.3h-1.1v-1c-0.3,0.5-0.6,0.8-1,1s-0.9,0.3-1.4,0.3
			c-0.8,0-1.6-0.4-2.2-1.1s-0.9-1.6-0.9-2.8c0-1.1,0.3-2,0.8-2.8c0.6-0.8,1.4-1.2,2.4-1.2C112.4,16.1,112.9,16.3,113.3,16.5z
			 M110.5,22.1c0.3,0.5,0.9,0.8,1.6,0.8c0.6,0,1.1-0.3,1.4-0.8c0.4-0.5,0.6-1.2,0.6-2.2s-0.2-1.7-0.6-2.1c-0.4-0.5-0.9-0.7-1.4-0.7
			c-0.6,0-1.1,0.2-1.5,0.7c-0.4,0.5-0.6,1.2-0.6,2.1C110,20.9,110.2,21.6,110.5,22.1z"/>
		<path id="XMLID_1_" d="M121.6,19.2c0.3,0,0.5-0.2,0.6-0.4c0.1-0.1,0.1-0.3,0.1-0.5c0-0.4-0.2-0.7-0.5-0.9
			c-0.3-0.2-0.7-0.3-1.3-0.3c-0.7,0-1.1,0.2-1.4,0.5c-0.2,0.2-0.3,0.5-0.3,0.9h-1.2c0-0.9,0.3-1.6,0.9-1.9c0.6-0.4,1.2-0.5,2-0.5
			c0.9,0,1.6,0.2,2.2,0.5c0.5,0.3,0.8,0.9,0.8,1.6v4.3c0,0.1,0,0.2,0.1,0.3c0.1,0.1,0.2,0.1,0.3,0.1h0.2h0.2v0.9
			c-0.2,0.1-0.3,0.1-0.4,0.1s-0.2,0-0.4,0c-0.4,0-0.8-0.2-0.9-0.5c-0.1-0.2-0.2-0.4-0.2-0.7c-0.3,0.3-0.6,0.6-1.1,0.9
			c-0.5,0.2-1,0.4-1.6,0.4c-0.7,0-1.3-0.2-1.7-0.6c-0.4-0.4-0.7-1-0.7-1.6c0-0.7,0.2-1.2,0.7-1.6c0.4-0.4,1-0.6,1.7-0.7L121.6,19.2z
			 M118.9,22.7c0.3,0.2,0.6,0.3,0.9,0.3c0.4,0,0.9-0.1,1.3-0.3c0.7-0.3,1.1-0.9,1.1-1.7v-1c-0.2,0.1-0.4,0.2-0.6,0.2
			c-0.2,0.1-0.5,0.1-0.7,0.1l-0.8,0.1c-0.5,0.1-0.8,0.2-1,0.3c-0.4,0.2-0.6,0.6-0.6,1.1C118.5,22.2,118.7,22.4,118.9,22.7z"/>
	</g>
</g>
<g id="Layer_2">
	<rect id="XMLID_3_" y="-0.1" class="st1" width="12.2" height="25"/>
	<rect id="XMLID_4_" x="39.6" y="-0.1" class="st1" width="12.2" height="25"/>
	<path id="XMLID_5_" class="st1" d="M24.2,5.1L26,1.5l1.7,3.4c0.2,0.4,0.4,0.3,0.7,0.2l1.5-0.7l-1,4.8c-0.2,0.9,0.3,1.2,0.9,0.6
		l2.1-2.3l0.6,1.3c0.2,0.4,0.5,0.3,0.9,0.3l2.2-0.5l-0.7,2.8v0.1c-0.1,0.4-0.3,0.7,0.1,0.8l0.8,0.4l-4.5,3.8
		c-0.5,0.5-0.3,0.6-0.1,1.2l0.4,1.2l-4.2-0.8c-0.5-0.1-0.9-0.1-0.9,0.3l0.2,4.8h-1.3l0.2-4.8c0-0.5-0.4-0.5-1.2-0.3L20.5,19l0.5-1.3
		c0.2-0.5,0.2-0.8-0.2-1.2l-4.6-3.8l0.9-0.5c0.2-0.2,0.3-0.4,0.1-0.8l-0.9-2.8L18.5,9c0.6,0.1,0.8,0,1-0.3l0.6-1.3l2.2,2.5
		c0.4,0.5,0.9,0.2,0.8-0.5L22,4.2l1.6,0.9C23.8,5.3,24.1,5.4,24.2,5.1"/>
</g>
</svg>
