<?xml version="1.0" encoding="utf-8"?>
<svg version="1.1" id="kartverket" xmlns="http://www.w3.org/2000/svg" xmlns:xlink="http://www.w3.org/1999/xlink" x="0px" y="0px"
	 viewBox="0 0 182.4 63.9" style="enable-background:new 0 0 182.4 63.9;" xml:space="preserve">
<style type="text/css">
	.st0{fill:#249446;}
	.st1{fill:#1A589F;}
	.st2{fill:#FFFFFF;}
</style>
<path class="st0" d="M40.2,2.1H5.6c-1.7,0-3.1,1.4-3.1,3.1v21.2c2.7-2.1,6.1-4.9,12.2-3.4c5.3,1.3,6.4,5.4,14.8,10
	c5.1,2.8,9.9,0.6,13.8-1.6V5.2C43.3,3.5,41.9,2.1,40.2,2.1"/>
<path class="st1" d="M32.2,42.4c-1.7-0.2-3.1-0.8-4.4-1.7c-2.9-1.8-5.7-4.7-11.7-7.8c-4.7-2.3-9.4-0.5-13.6,1.9c0,0,0,0,0,0v23.7
	c0,1.7,1.4,3.1,3.1,3.1h34.5c1.7,0,3.1-1.4,3.1-3.1V39.1C39.6,41.2,36.1,43,32.2,42.4"/>
<path class="st2" d="M29.5,32.9c-8.3-4.6-9.5-8.7-14.8-10c-6.1-1.5-9.5,1.4-12.2,3.4l0,4.3l0,4.1c4.2-2.4,8.9-4.3,13.6-1.9
	c6,3.1,8.8,6,11.7,7.8c1.3,0.8,2.7,1.4,4.4,1.7c3.9,0.6,7.4-1.1,11.1-3.2l0-3.8l0-4.1C39.4,33.6,34.6,35.8,29.5,32.9"/>
<g>
	<path d="M54.3,50.9V31.3h2.4v19.6H54.3z M59.4,40.5l7.8,10.4h-3l-7.5-10.4l7.5-9.2h3L59.4,40.5z"/>
	<path d="M80.1,51.4c-1-0.3-1.7-1.1-1.9-2.1c-1.4,1.4-2.5,1.9-4.1,1.9c-3.5,0-4.6-2.1-4.6-4.1c0-3.2,2.8-5.1,7.5-5.1
		c0.3,0,0.5,0,1,0v-1c0-1.3-0.1-1.8-0.5-2.2c-0.5-0.5-1-0.8-1.9-0.8c-1.6,0-3.6,0.9-4.5,1.7L70,38.2c1.9-1.3,3.9-1.9,6-1.9
		c2,0,3.3,0.8,3.9,2.2c0.3,0.8,0.3,1.9,0.3,3.1l-0.1,4.7c-0.1,2.3,0.1,2.9,1.1,3.5L80.1,51.4z M76.9,43.6c-3.6,0-4.9,1.2-4.9,3.4
		c0,1.7,0.8,2.6,2.5,2.6c1.5,0,2.8-0.9,3.5-2.2l0.1-3.7C77.7,43.6,77.2,43.6,76.9,43.6z"/>
	<path d="M91.4,38.8c-0.1-0.1-0.4-0.1-0.6-0.1c-0.9,0-1.7,0.4-2.4,1c-0.7,0.7-0.8,1.1-0.8,2.3v8.9h-2.2v-11c0-1.9-0.4-2.8-0.5-3
		l2.2-0.6c0.1,0.2,0.5,1.3,0.5,2.3c1-1.5,2.5-2.4,4-2.4c0.3,0,0.7,0.1,0.8,0.1L91.4,38.8z"/>
	<path d="M101.5,38.3h-3v9.2c0,1.6,0.4,2.1,1.8,2.1c0.6,0,1-0.1,1.4-0.3l0.3,1.4c-0.7,0.4-1.5,0.6-2.5,0.6c-0.7,0-1.3-0.1-1.9-0.4
		c-1-0.5-1.4-1.4-1.4-2.8v-9.8h-1.9v-1.7h1.9c0-1.2,0.2-3.1,0.2-3.6l2.3-0.5c-0.1,0.5-0.3,2.4-0.3,4.1h3.6L101.5,38.3z"/>
	<path d="M111.9,51h-2.2l-5.1-14.2l2.3-0.5l3.3,9.8c0.3,1,0.6,2.2,0.7,2.4h0.1c0.1-0.2,0.3-1.3,0.7-2.4l3.3-9.4h2.4L111.9,51z"/>
	<path d="M121.9,44.1v0.3c0,1.3,0.2,2.4,0.7,3.1c0.8,1.2,2.1,1.7,3.5,1.7c1.4,0,2.5-0.4,3.5-1.3l0.9,1.4c-1.3,1.1-3,1.8-4.8,1.8
		c-3.9,0-6.3-2.9-6.3-7.6c0-2.4,0.5-3.9,1.7-5.4c1.1-1.3,2.5-2,4.3-2c1.5,0,2.9,0.5,3.9,1.5c1.2,1.3,1.6,2.6,1.6,6v0.3H121.9z
		 M127.7,39.3c-0.5-0.8-1.5-1.3-2.6-1.3c-2,0-3.2,1.5-3.3,4.4h6.5C128.4,40.9,128.2,40,127.7,39.3z"/>
	<path d="M141,38.8c-0.1-0.1-0.4-0.1-0.6-0.1c-0.9,0-1.7,0.4-2.4,1c-0.7,0.7-0.8,1.1-0.8,2.3v8.9h-2.2v-11c0-1.9-0.4-2.8-0.5-3
		l2.2-0.6c0.1,0.2,0.5,1.3,0.5,2.3c1-1.5,2.5-2.4,4-2.4c0.3,0,0.7,0.1,0.8,0.1L141,38.8z"/>
	<path d="M144.9,50.9V33.4c0-1.7-0.3-2.7-0.4-2.9l2.2-0.4c0.1,0.2,0.4,1.4,0.4,3.4v17.5H144.9z M153.8,50.9l-6.5-8l5.4-6.2h2.8
		l-5.6,6.2l6.9,8H153.8z"/>
	<path d="M160.7,44.1v0.3c0,1.3,0.2,2.4,0.7,3.1c0.8,1.2,2.1,1.7,3.5,1.7c1.4,0,2.5-0.4,3.5-1.3l0.9,1.4c-1.3,1.1-3,1.8-4.8,1.8
		c-3.9,0-6.3-2.9-6.3-7.6c0-2.4,0.5-3.9,1.7-5.4c1.1-1.3,2.5-2,4.3-2c1.5,0,2.9,0.5,3.9,1.5c1.2,1.3,1.6,2.6,1.6,6v0.3H160.7z
		 M166.6,39.3c-0.5-0.8-1.5-1.3-2.6-1.3c-2,0-3.2,1.5-3.3,4.4h6.5C167.2,40.9,167,40,166.6,39.3z"/>
	<path d="M179.2,38.3h-3v9.2c0,1.6,0.4,2.1,1.8,2.1c0.6,0,1-0.1,1.4-0.3l0.3,1.4c-0.7,0.4-1.5,0.6-2.5,0.6c-0.7,0-1.3-0.1-1.9-0.4
		c-1-0.5-1.4-1.4-1.4-2.8v-9.8h-1.9v-1.7h1.9c0-1.2,0.2-3.1,0.2-3.6l2.3-0.5c-0.1,0.5-0.3,2.4-0.3,4.1h3.6L179.2,38.3z"/>
</g>
</svg>
